# xmcd CD database file
#
# Track frame offsets:
#	150
#	15438
#	32210
#	50533
#	64984
#	80233
#	95314
#	113466
#	127556
#	142943
#	155953
#	172667
#
# Disc length: 2525 seconds
#
# Revision: 1
# Processed by: cddbd v1.5.2PL0 Copyright (c) Steve Scherf et al.
# Submitted via: NeoAudio 9.9.9
#
DISCID=8f09db0c
DTITLE=Worly, Darryl - I Miss My Friend
DYEAR=2002
DGENRE=Country
TTITLE0=Tennessee River Run
TTITLE1=I Wouldn't Mind The Shackles
TTITLE2=I Miss My Friend
TTITLE3=Callin' Caroline
TTITLE4=Family Tree
TTITLE5=Back Where I Belong
TTITLE6=The Least That You Can Do
TTITLE7=I Built This Wall
TTITLE8=Opportunity Of A Lifetime
TTITLE9=Spread A Little Love Around
TTITLE10=Pow
TTITLE11=Where You Think You're Goin'?
EXTD=YEAR: 2002
EXTT0=
EXTT1=
EXTT2=
EXTT3=
EXTT4=
EXTT5=
EXTT6=
EXTT7=
EXTT8=
EXTT9=
EXTT10=
EXTT11=
PLAYORDER=
